<svg width="40" height="40" viewBox="0 0 40 40" fill="none" xmlns="http://www.w3.org/2000/svg">
  <g clip-path="url(#clip0_123_29)">
    <rect width="40" height="40" rx="5" fill="#FBFCFD"/>
    <path d="M13.1667 16.5V13.7C13.1667 12.6691 13.9503 11.8334 14.9167 11.8334H22.7917" stroke="#5672CD"/>
    <path d="M26 15V25" stroke="#5672CD"/>
    <path
      d="M8.5 23.8889V16.1112C8.5 15.6816 8.84823 15.3334 9.27778 15.3334H17.0556C17.4851 15.3334 17.8333 15.6816 17.8333 16.1112V23.8889C17.8333 24.3184 17.4851 24.6667 17.0556 24.6667H9.27778C8.84823 24.6667 8.5 24.3184 8.5 23.8889Z"
      fill="#5672CD" stroke="#5672CD" stroke-linejoin="round"/>
    <path
      d="M28.625 15.3334H23.375C22.8918 15.3334 22.5 14.9416 22.5 14.4584V9.20837C22.5 8.72513 22.8918 8.33337 23.375 8.33337H28.625C29.1082 8.33337 29.5 8.72513 29.5 9.20837V14.4584C29.5 14.9416 29.1082 15.3334 28.625 15.3334Z"
      fill="#5672CD" stroke="#5672CD" stroke-linejoin="round"/>
    <path
      d="M28.625 24.6666H23.375C22.8918 24.6666 22.5 25.0584 22.5 25.5416V30.7916C22.5 31.2749 22.8918 31.6666 23.375 31.6666H28.625C29.1082 31.6666 29.5 31.2749 29.5 30.7916V25.5416C29.5 25.0584 29.1082 24.6666 28.625 24.6666Z"
      fill="#5672CD" stroke="#5672CD" stroke-linejoin="round"/>
  </g>
  <defs>
    <clipPath id="clip0_123_29">
      <rect width="40" height="40" fill="transparent"/>
    </clipPath>
  </defs>
</svg>
